<?xml version="1.0" standalone="no"?>
<!DOCTYPE svg PUBLIC "-//W3C//DTD SVG 20010904//EN"
 "http://www.w3.org/TR/2001/REC-SVG-20010904/DTD/svg10.dtd">
<svg version="1.0" xmlns="http://www.w3.org/2000/svg"
 width="1280.000000pt" height="1174.000000pt" viewBox="0 0 1280.000000 1174.000000"
 preserveAspectRatio="xMidYMid meet">
<metadata>
Created by potrace 1.15, written by Peter Selinger 2001-2017
</metadata>
<g transform="translate(0.000000,1174.000000) scale(0.100000,-0.100000)"
fill="param(fill) #FFF"  stroke="none">
<path d="M7437 11719 c-102 -25 -156 -56 -245 -143 -107 -103 -157 -192 -227
-401 -41 -125 -53 -269 -34 -420 7 -55 12 -122 12 -150 -1 -63 -14 -195 -20
-195 -3 0 -28 20 -56 45 -29 25 -59 44 -67 43 -21 -4 -24 -42 -5 -58 8 -7 15
-18 15 -26 0 -7 26 -41 58 -76 156 -170 1529 -1529 1572 -1556 14 -9 45 -33
69 -54 49 -42 76 -48 86 -18 9 28 -4 80 -20 80 -7 0 -15 10 -19 23 -3 13 -17
29 -31 35 -14 6 -25 16 -25 22 0 8 -138 151 -201 207 -60 54 -549 525 -549
529 0 7 35 -10 74 -35 21 -14 62 -34 90 -46 37 -15 52 -26 54 -43 3 -18 10
-22 42 -22 73 0 86 -11 93 -79 4 -45 13 -73 38 -111 18 -27 36 -50 40 -50 5 0
41 -29 81 -65 39 -36 76 -65 81 -65 5 0 4 -6 -2 -14 -9 -11 -2 -22 36 -56 107
-94 322 -188 518 -226 111 -22 147 -25 245 -20 211 11 285 28 436 104 64 32
92 54 137 107 31 37 57 74 57 83 0 9 9 31 20 47 16 25 20 47 20 123 0 64 -5
102 -15 122 -8 16 -27 62 -41 102 -71 201 -296 448 -464 512 -37 14 -70 16
-182 12 l-137 -4 16 24 c33 51 63 176 63 264 -1 180 -19 242 -155 520 -23 47
-98 165 -127 200 -70 84 -130 152 -235 264 -145 157 -146 157 -229 225 -61 51
-95 71 -189 111 -11 4 -37 15 -57 24 -20 9 -58 19 -85 22 -53 6 -67 11 -133
42 -53 25 -225 62 -284 61 -23 0 -76 -9 -119 -20z m593 -124 c52 -20 109 -44
130 -56 8 -5 25 -14 38 -19 24 -10 137 -99 182 -143 14 -13 41 -44 60 -68 l34
-44 -58 53 c-32 29 -80 64 -106 77 -26 13 -76 43 -111 67 -35 24 -103 68 -151
97 -49 29 -88 55 -88 58 0 3 6 3 13 0 6 -3 32 -12 57 -22z m-948 -1240 c28
-44 75 -118 105 -163 30 -46 53 -86 51 -87 -2 -2 -70 62 -151 143 -82 81 -143
148 -137 150 5 2 10 25 10 52 0 26 3 62 7 80 l6 33 29 -64 c16 -35 52 -100 80
-144z m1918 127 c6 -31 15 -79 21 -105 13 -69 11 -164 -5 -217 -13 -43 -14
-41 -9 55 5 91 0 144 -25 287 -12 67 4 49 18 -20z m323 -553 c38 -19 177 -125
177 -134 0 -6 -98 61 -125 86 -11 10 -50 32 -85 49 -39 18 -53 28 -35 25 17
-3 47 -15 68 -26z m457 -691 c0 -53 -4 -99 -9 -103 -5 -3 -15 -22 -22 -43 -20
-63 -103 -149 -183 -189 -79 -40 -221 -93 -249 -93 -32 0 -9 17 33 24 23 3 49
11 58 16 9 5 28 11 42 14 32 7 145 80 186 120 49 50 101 137 114 195 8 33 10
84 7 130 -5 69 -4 74 8 51 10 -16 14 -58 15 -122z m-1357 -196 c51 -34 138
-76 192 -93 22 -7 49 -18 61 -26 36 -23 246 -90 308 -97 33 -5 69 -12 80 -16
45 -18 -63 -10 -180 14 -179 37 -383 126 -474 206 -53 46 -46 52 13 12z m827
-232 c-8 -5 -22 -10 -30 -10 -13 0 -13 1 0 10 8 5 22 10 30 10 13 0 13 -1 0
-10z"/>
<path d="M6807 11634 c-4 -4 -7 -20 -7 -35 0 -20 -9 -35 -30 -51 -16 -12 -30
-27 -30 -33 0 -6 -10 -25 -23 -42 -41 -56 -93 -261 -84 -334 3 -24 10 -87 16
-139 7 -52 19 -115 27 -140 9 -25 20 -63 24 -85 9 -44 38 -132 52 -155 4 -8
13 -27 19 -42 11 -28 39 -39 39 -15 0 6 -8 26 -18 42 -10 17 -28 64 -41 105
-13 41 -30 95 -38 120 -32 93 -56 286 -48 380 6 75 49 214 76 249 11 13 19 29
19 35 0 7 13 22 29 33 21 16 31 19 39 11 9 -9 18 -8 37 2 22 12 26 20 23 54
-3 39 -5 41 -38 44 -20 2 -39 0 -43 -4z"/>
<path d="M6485 11570 c-11 -12 -16 -29 -13 -44 3 -14 -10 -67 -28 -122 -50
-141 -47 -179 27 -417 40 -125 124 -289 192 -372 13 -16 35 -47 48 -67 13 -21
32 -38 42 -38 24 0 21 14 -10 48 -145 156 -287 466 -300 656 -5 77 -3 96 23
176 26 83 30 90 55 90 51 0 77 60 41 93 -25 23 -55 21 -77 -3z"/>
<path d="M2890 10485 c-14 -8 -35 -14 -47 -15 -12 0 -24 -4 -28 -10 -3 -5 -11
-7 -18 -4 -17 6 -98 -38 -154 -84 -59 -48 -213 -222 -213 -240 0 -8 -9 -25
-20 -39 -11 -14 -20 -34 -20 -44 0 -10 -4 -21 -10 -24 -5 -3 -10 -19 -10 -35
0 -16 -4 -32 -10 -35 -5 -3 -10 -33 -10 -65 0 -32 5 -62 10 -65 6 -3 10 -13
10 -21 0 -10 -13 -14 -45 -14 -46 0 -94 -18 -128 -48 -9 -8 -27 -20 -40 -26
-12 -7 -28 -24 -35 -39 -7 -15 -17 -27 -23 -27 -5 0 -9 -8 -9 -17 0 -9 -10
-27 -22 -41 -20 -21 -23 -34 -23 -114 l0 -90 35 -30 c67 -56 117 -77 199 -84
89 -8 208 9 263 37 48 25 57 24 24 -2 -16 -12 -26 -30 -26 -46 0 -23 3 -25 32
-19 33 6 44 16 347 316 64 64 143 140 176 170 76 68 255 260 255 273 0 5 11
23 25 39 73 87 105 209 84 320 -13 65 -21 78 -51 78 -14 0 -18 -8 -18 -35 0
-28 4 -35 20 -35 13 0 20 -7 20 -20 0 -11 6 -29 12 -40 10 -16 10 -24 0 -40
-6 -11 -12 -30 -12 -44 0 -31 -26 -93 -56 -133 -13 -17 -24 -37 -24 -44 0 -7
-3 -10 -6 -6 -7 7 14 114 27 139 11 22 12 113 1 136 -56 113 -72 137 -94 137
-18 0 -24 -6 -26 -27 -3 -22 1 -27 24 -30 68 -8 92 -161 46 -297 -12 -35 -22
-74 -22 -87 0 -20 -17 -34 -41 -34 -5 0 -9 55 -9 123 -1 196 -27 263 -140 351
-57 45 -60 46 -127 46 -40 -1 -78 -7 -93 -15z m321 -558 c-14 -15 -21 -17 -21
-8 0 21 33 56 38 41 3 -7 -5 -22 -17 -33z m-386 -372 c-16 -14 -38 -33 -47
-42 -17 -15 -18 -15 -18 10 0 22 5 27 24 27 13 0 29 7 36 15 7 8 18 15 24 15
6 0 -2 -12 -19 -25z"/>
<path d="M4451 9322 c-10 -19 -16 -77 -19 -191 l-4 -164 -67 134 c-69 135 -98
172 -88 108 7 -49 21 -94 52 -174 46 -118 85 -228 99 -275 7 -25 19 -56 25
-68 7 -13 11 -37 9 -55 l-4 -32 -18 40 c-10 22 -26 57 -35 77 -9 21 -19 38
-23 38 -4 0 -21 26 -37 59 -16 32 -40 71 -53 87 -13 16 -29 41 -36 56 -14 35
-102 128 -119 128 -9 0 -13 -16 -13 -50 0 -27 -3 -50 -6 -50 -3 0 -17 14 -31
30 -15 19 -34 30 -50 30 -24 0 -25 -1 -20 -62 7 -97 20 -138 76 -251 28 -57
51 -111 51 -119 0 -7 4 -18 9 -24 11 -10 52 -116 48 -121 -2 -1 -26 25 -53 58
-27 34 -88 105 -135 158 -47 54 -92 108 -101 120 -9 13 -31 24 -52 28 l-37 6
21 -37 c11 -21 28 -48 36 -62 20 -29 11 -31 -23 -4 -38 30 -96 27 -113 -5 -10
-20 -11 -28 -2 -37 7 -7 12 -18 12 -26 0 -12 -3 -12 -15 -2 -24 20 -88 50
-107 50 -11 0 -18 -7 -18 -19 0 -23 -25 -45 -44 -38 -7 3 -25 -7 -40 -22 -21
-22 -26 -37 -26 -79 0 -60 12 -81 105 -182 82 -89 152 -180 140 -180 -2 0 -56
16 -119 35 -64 19 -125 35 -136 35 -12 0 -34 7 -49 15 -16 8 -58 17 -95 21
-63 6 -66 6 -66 -15 0 -11 6 -21 14 -21 7 0 25 -9 39 -20 14 -11 34 -20 45
-20 12 0 24 -4 27 -10 4 -6 -15 -10 -48 -10 -59 0 -128 -22 -108 -35 7 -4 16
-17 20 -29 12 -29 162 -107 281 -144 52 -17 111 -38 130 -49 l35 -18 -120 -6
c-168 -10 -209 -18 -213 -46 -3 -19 1 -23 22 -23 14 0 28 -4 31 -10 3 -5 29
-10 56 -10 60 0 57 -13 -8 -30 -59 -16 -94 -33 -155 -73 -50 -33 -62 -63 -34
-86 20 -17 128 -35 206 -34 36 1 85 1 110 0 128 0 167 2 305 16 83 9 168 21
190 27 58 14 60 13 27 -15 -17 -14 -35 -25 -42 -25 -7 0 -43 -26 -80 -57 -37
-32 -93 -78 -124 -103 -124 -99 -291 -302 -357 -432 -38 -76 -79 -247 -79
-333 0 -165 85 -382 220 -563 72 -96 197 -199 305 -251 158 -76 343 -134 470
-147 l66 -7 -5 -36 c-10 -63 -25 -223 -31 -326 -3 -55 -13 -154 -21 -220 -8
-66 -17 -217 -20 -335 -2 -118 -12 -343 -20 -500 -12 -224 -15 -431 -11 -970
5 -691 20 -1424 31 -1470 3 -14 8 -119 11 -235 3 -115 10 -246 15 -290 5 -44
9 -132 10 -195 0 -63 7 -178 15 -255 8 -77 15 -178 15 -225 0 -47 5 -116 11
-155 5 -38 15 -168 23 -288 7 -119 15 -219 17 -222 3 -2 34 -1 69 3 l63 7 -2
80 c-1 44 -6 109 -11 145 -5 36 -11 135 -15 220 -3 85 -13 220 -21 299 -8 79
-14 180 -14 225 0 44 -7 171 -15 281 -16 211 -42 960 -55 1630 -16 756 21
1996 75 2535 8 85 18 185 21 223 l6 67 37 0 c20 0 77 9 127 20 49 11 105 20
125 20 34 0 171 47 313 107 121 50 277 182 354 297 27 41 64 111 82 157 29 74
33 98 37 209 7 190 -24 351 -97 505 -82 171 -214 375 -337 523 l-45 52 129 0
c70 0 146 5 168 10 22 5 108 14 190 20 83 7 154 16 160 21 5 5 15 9 22 9 6 0
23 11 37 25 14 14 19 25 13 25 -7 0 -18 5 -25 12 -6 6 -42 21 -79 33 l-68 21
149 6 c155 5 166 9 166 54 0 24 -23 38 -105 60 -53 14 -97 23 -213 40 -43 7
-34 18 25 34 27 7 58 19 70 26 12 8 46 23 76 34 80 30 147 76 147 100 0 20 -3
21 -72 14 -40 -3 -82 -11 -92 -16 -10 -6 -49 -14 -87 -19 -37 -4 -94 -18 -126
-29 -71 -26 -174 -52 -180 -47 -2 3 31 17 74 32 121 42 381 175 405 208 20 27
20 29 2 42 -11 7 -23 10 -29 5 -5 -4 -26 -10 -45 -13 -81 -13 -106 -20 -120
-32 -46 -37 -36 -19 15 29 33 30 67 58 75 61 17 6 50 59 50 81 0 9 -10 14 -27
14 -35 -1 -141 -35 -162 -53 -9 -8 -50 -28 -91 -46 -41 -18 -82 -39 -90 -46
-19 -16 -60 -37 -60 -31 0 3 52 41 115 86 63 45 115 86 115 91 0 5 25 25 55
44 30 20 55 40 55 45 0 5 14 25 30 43 34 39 37 58 14 78 -13 11 -29 8 -97 -16
-45 -16 -98 -37 -117 -48 l-35 -19 36 33 c62 58 129 145 129 168 0 35 1 35
-168 -73 -88 -57 -165 -116 -281 -217 -48 -41 -103 -86 -122 -99 l-34 -24 35
40 c19 22 53 64 75 93 22 29 54 69 71 89 17 20 46 59 65 86 19 26 51 71 71
100 50 68 98 165 98 197 0 14 -9 34 -20 44 -14 12 -20 14 -20 5 0 -13 -28 -39
-43 -40 -11 0 2 41 20 61 13 15 11 17 -17 14 -24 -2 -46 -16 -84 -56 -45 -46
-135 -159 -186 -232 -8 -12 -40 -56 -71 -97 -30 -41 -67 -96 -82 -122 -63
-110 -34 -19 42 130 22 43 31 65 93 237 58 161 68 195 68 232 0 75 -80 21
-151 -102 l-28 -49 -3 109 c-3 101 -5 110 -23 113 -15 2 -25 -9 -41 -45 -29
-66 -64 -177 -64 -205 0 -13 -14 -68 -30 -122 -17 -55 -30 -101 -30 -103 0 -1
-7 -3 -16 -3 -12 0 -15 5 -9 23 13 40 18 288 7 341 -6 28 -16 85 -22 125 -12
83 -22 101 -54 101 -15 0 -26 -11 -38 -37 -15 -34 -17 -35 -17 -12 -1 41 -51
72 -51 31 0 -10 -5 -23 -11 -29 -5 -5 -15 -82 -20 -169 -11 -181 -25 -280 -45
-310 -8 -13 -11 -36 -7 -57 3 -20 1 -37 -6 -41 -7 -5 -11 4 -11 26 0 47 -84
382 -116 464 -15 38 -35 78 -46 90 -10 11 -18 26 -18 32 0 24 -45 12 -59 -16z
m-721 -700 c40 -11 55 -24 82 -74 30 -54 71 -107 147 -190 30 -32 52 -60 50
-62 -15 -15 -302 252 -331 308 l-20 39 24 -7 c12 -4 34 -11 48 -14z m880
-3093 c-12 -139 -20 -177 -20 -95 0 55 21 238 27 232 2 -2 -1 -64 -7 -137z
m-73 -1226 c-2 -38 -3 -7 -3 67 0 74 1 105 3 68 2 -38 2 -98 0 -135z m-15
-713 c-8 -77 -9 -67 -11 106 0 105 2 227 7 270 6 67 7 51 10 -106 1 -102 -2
-223 -6 -270z m5 -785 c0 -136 -2 -181 -7 -140 -4 33 -8 152 -7 265 0 141 2
185 7 140 4 -36 8 -155 7 -265z m10 -547 c-2 -35 -3 -9 -3 57 0 66 1 94 3 63
2 -32 2 -86 0 -120z m15 -345 c2 -44 0 -79 -4 -76 -5 2 -7 57 -6 121 2 119 5
102 10 -45z m16 -398 c-1 -79 -1 -79 -8 -25 -5 30 -8 87 -8 125 0 66 1 68 9
25 4 -25 7 -81 7 -125z m26 -455 c3 -60 2 -88 -4 -75 -8 19 -14 183 -6 174 2
-2 6 -47 10 -99z m23 -477 c-2 -21 -4 -4 -4 37 0 41 2 58 4 38 2 -21 2 -55 0
-75z"/>
<path d="M1220 8176 c0 -14 -4 -27 -8 -30 -5 -3 -12 -67 -15 -143 -4 -76 -10
-162 -13 -190 -7 -57 -24 -63 -24 -9 0 32 -24 123 -56 216 -8 25 -19 59 -23
77 -18 69 -75 116 -98 81 -4 -7 -10 -62 -13 -123 l-5 -110 -37 72 c-21 40 -38
79 -38 88 0 8 -9 15 -20 15 -22 0 -25 -16 -9 -57 6 -15 10 -29 10 -31 -1 -1
11 -26 25 -55 27 -51 117 -298 111 -303 -1 -2 -14 18 -29 44 -99 180 -181 289
-211 279 -7 -2 -13 -16 -15 -31 -3 -27 -4 -27 -23 -10 -31 28 -55 7 -51 -42 2
-22 8 -43 13 -48 5 -6 9 -18 9 -27 0 -9 25 -67 56 -128 31 -62 54 -114 51
-117 -2 -3 -17 10 -31 28 -15 18 -62 70 -104 115 -82 89 -119 106 -108 53 5
-27 3 -30 -18 -30 -38 0 -56 -10 -56 -31 0 -17 -5 -18 -41 -13 -34 6 -42 3
-55 -15 -8 -11 -23 -21 -33 -21 -20 0 -31 -26 -31 -77 0 -24 13 -47 50 -92 28
-34 62 -68 76 -78 28 -18 65 -79 42 -70 -7 3 -31 11 -53 17 -22 6 -53 15 -70
20 -16 5 -57 12 -90 16 -33 4 -68 14 -77 22 -17 14 -18 13 -18 -11 0 -14 9
-32 20 -40 19 -13 19 -14 -5 -27 -15 -8 -25 -22 -25 -35 0 -44 44 -66 268
-135 67 -21 60 -30 -21 -30 -117 0 -167 -9 -167 -31 0 -11 6 -19 14 -19 7 0
26 -6 41 -14 l27 -14 -50 -22 c-28 -12 -58 -30 -68 -41 -9 -10 -23 -19 -31
-19 -20 0 -16 -14 12 -40 25 -24 28 -24 207 -22 99 1 186 6 192 9 11 8 179 33
184 28 2 -1 -21 -18 -50 -38 -95 -63 -283 -274 -334 -374 -53 -105 -66 -166
-62 -281 4 -123 16 -155 119 -322 63 -103 120 -160 214 -216 52 -30 260 -104
295 -104 58 -1 57 25 22 -517 -43 -675 -47 -822 -47 -1608 1 -764 33 -2207 50
-2236 3 -4 10 -112 15 -240 6 -129 15 -310 20 -404 5 -93 12 -267 16 -385 4
-118 11 -223 16 -232 7 -14 21 -18 64 -18 l56 0 -6 38 c-3 20 -13 165 -20 322
-8 157 -20 371 -26 475 -12 195 -20 402 -45 1145 -19 582 -19 2085 0 2705 15
469 24 625 46 828 l12 107 46 0 c104 0 269 38 371 84 55 26 102 46 105 46 4 0
40 27 80 60 57 46 87 82 130 150 48 79 57 101 71 182 20 115 13 191 -27 313
-48 144 -142 306 -257 441 l-60 71 99 6 c55 3 105 9 112 15 7 5 54 12 104 15
51 3 98 9 105 14 7 4 15 8 18 8 56 8 67 47 18 65 -30 11 -31 13 -13 20 11 5
40 9 65 9 74 2 92 10 88 40 -3 22 -10 27 -58 39 -30 8 -89 20 -130 27 -41 7
-66 13 -55 14 11 0 68 24 127 53 75 37 108 58 108 71 0 14 -9 17 -44 17 -41 0
-63 -5 -213 -50 -35 -10 -63 -17 -63 -15 0 2 46 26 103 53 118 57 157 86 157
113 0 15 -7 19 -34 19 -18 0 -46 -7 -62 -15 -43 -22 -40 -11 10 35 96 89 33
109 -109 36 -47 -24 -85 -42 -85 -40 0 2 18 15 39 30 81 53 181 161 181 195 0
18 -69 8 -114 -17 -26 -15 -49 -24 -51 -22 -2 2 18 28 45 58 48 53 57 70 44
83 -11 11 -75 -21 -115 -58 -22 -19 -44 -35 -49 -35 -5 0 -56 -43 -112 -95
-57 -52 -107 -95 -111 -95 -5 0 11 24 36 53 24 28 61 81 83 116 21 36 49 75
62 87 12 13 22 30 22 38 0 9 9 31 20 51 25 44 26 83 3 92 -9 4 -19 1 -21 -5
-6 -19 -22 -14 -22 8 0 34 -34 23 -66 -21 -16 -22 -37 -48 -46 -58 -25 -24
-60 -76 -113 -164 -26 -43 -49 -76 -51 -74 -4 4 40 125 71 193 7 17 16 52 20
78 4 25 11 49 16 52 5 3 9 25 9 48 0 35 -4 45 -20 49 -11 3 -20 0 -20 -5 0 -6
-15 -27 -34 -48 l-34 -38 -11 25 c-6 13 -11 40 -11 59 0 31 -3 35 -21 32 -17
-2 -25 -15 -36 -53 -19 -69 -41 -158 -56 -230 l-12 -60 -6 125 c-6 116 -16
193 -34 263 -8 31 -30 35 -57 10 -17 -15 -18 -15 -18 0 0 10 -8 17 -20 17 -15
0 -20 -7 -20 -24z m-721 -524 c19 -9 49 -37 67 -62 62 -85 93 -130 89 -130 -8
0 -147 133 -190 183 -28 32 -18 35 34 9z"/>
<path d="M10219 8143 c0 -5 0 -44 1 -88 0 -44 -4 -94 -9 -111 -6 -20 -5 -46 2
-71 8 -32 7 -43 -3 -55 -12 -13 -19 -4 -46 66 -37 96 -54 148 -54 165 0 26
-53 82 -74 79 -19 -3 -21 -10 -24 -96 -3 -93 -3 -93 -21 -70 -10 12 -21 32
-25 44 -3 11 -20 33 -36 49 l-30 29 0 -32 c0 -18 4 -32 8 -32 8 0 52 -92 52
-108 0 -4 14 -40 31 -81 31 -75 34 -112 3 -47 -10 20 -21 36 -25 36 -5 0 -29
31 -55 68 -39 58 -51 68 -70 64 -16 -3 -24 -11 -24 -25 0 -16 -3 -18 -12 -9
-7 7 -23 12 -36 12 -23 0 -24 -3 -18 -39 3 -21 35 -95 71 -165 49 -95 60 -124
45 -116 -11 6 -24 19 -29 29 -16 28 -132 151 -144 151 -6 0 -19 7 -29 17 -17
15 -18 15 -18 -7 0 -13 7 -31 16 -41 14 -16 13 -17 -17 -16 -24 2 -36 -4 -43
-18 -9 -16 -19 -19 -48 -17 -29 2 -38 0 -38 -12 0 -9 -6 -16 -13 -16 -35 0
-66 -87 -37 -105 6 -3 10 -14 10 -24 0 -10 26 -40 58 -67 63 -54 72 -63 72
-82 0 -10 -6 -10 -27 1 -16 8 -48 17 -73 21 -25 4 -56 10 -70 12 -96 17 -100
17 -100 -5 0 -12 6 -21 15 -21 22 0 19 -9 -11 -32 l-25 -20 23 -25 c22 -24 99
-63 123 -63 6 0 43 -10 81 -22 l69 -23 -70 -3 c-38 -2 -74 -7 -79 -13 -6 -5
-20 -9 -33 -9 -16 0 -23 -6 -23 -20 0 -16 7 -20 35 -20 45 0 44 -13 -2 -35
-55 -26 -73 -44 -73 -77 0 -16 4 -27 9 -23 5 3 13 0 17 -6 5 -8 43 -10 133 -5
123 6 162 12 286 41 66 16 83 11 45 -13 -39 -24 -250 -240 -250 -256 0 -7 -9
-24 -20 -38 -38 -49 -90 -215 -90 -290 0 -14 14 -68 30 -119 34 -103 91 -189
183 -276 108 -102 304 -173 478 -173 l69 0 0 -47 c1 -27 7 -145 15 -263 34
-517 47 -1343 40 -2515 -4 -616 -10 -1246 -14 -1400 -11 -426 -40 -1165 -51
-1305 -14 -175 -15 -343 -2 -348 6 -2 12 5 15 15 4 17 5 17 6 1 1 -14 10 -18
40 -18 l39 0 6 73 c6 83 26 559 56 1317 14 351 33 1505 34 1975 0 529 -20
1455 -39 1781 -8 144 -15 310 -15 370 0 147 -19 314 -37 314 -8 0 -13 12 -13
29 0 28 3 30 58 41 117 23 223 70 314 137 102 75 126 105 180 220 l41 87 -6
100 c-10 178 -85 335 -258 542 l-68 81 46 7 c25 3 59 6 75 6 15 0 36 4 46 9 9
5 62 15 118 22 55 6 109 18 118 25 24 17 16 48 -12 52 -42 6 -22 21 39 28 49
5 62 11 69 28 13 33 -9 45 -93 52 -43 4 -79 10 -82 14 -2 3 13 15 33 25 20 10
51 28 67 40 17 12 38 24 48 28 9 3 17 16 17 28 0 21 -3 21 -56 15 -31 -3 -68
-12 -82 -20 -15 -7 -43 -16 -62 -19 -32 -6 -30 -4 20 23 89 48 135 84 138 109
4 23 2 23 -38 17 -23 -3 -53 -14 -68 -23 -21 -13 -19 -8 13 25 21 23 45 42 52
42 16 0 17 12 1 28 -17 17 -48 15 -83 -6 -16 -10 -43 -22 -58 -26 -25 -6 -19
3 42 65 39 40 71 80 71 90 0 27 -26 30 -76 8 -25 -11 -48 -18 -52 -15 -3 4 9
21 26 39 31 32 42 67 21 67 -27 0 -58 -24 -203 -154 -42 -38 -78 -67 -81 -64
-2 2 13 28 35 58 44 61 85 132 82 142 -1 3 5 12 13 18 8 7 15 19 15 27 0 7 7
25 16 38 13 20 14 28 4 40 -7 8 -19 15 -27 15 -7 0 -16 7 -19 15 -4 8 -11 15
-18 15 -17 0 -89 -88 -127 -155 -45 -81 -79 -130 -79 -116 0 7 11 45 23 84 41
125 50 161 50 207 0 64 -28 62 -62 -5 l-26 -50 -3 35 c-1 19 -6 42 -9 50 -3 8
-5 18 -5 23 1 4 -9 7 -23 7 -20 0 -25 -6 -30 -37 -4 -21 -13 -58 -21 -83 -7
-25 -17 -72 -21 -105 l-8 -60 -3 65 c-1 36 -6 74 -11 85 -5 11 -12 47 -16 79
-3 33 -10 65 -16 72 -5 6 -8 18 -7 25 2 9 -8 15 -24 17 -18 2 -28 -1 -28 -9 0
-10 -3 -10 -12 -1 -13 13 -38 16 -39 5z m-601 -499 c12 -4 22 -13 22 -21 0 -8
26 -42 57 -76 61 -66 33 -45 -87 62 -43 39 -41 48 8 35z m750 -2089 l-1 -50
-7 55 c-5 30 -8 71 -8 90 l0 35 9 -40 c4 -22 7 -62 7 -90z m19 -652 c-2 -32
-3 -8 -3 52 0 61 1 87 3 58 2 -29 2 -78 0 -110z m20 -518 l0 -70 -7 65 c-4 36
-8 97 -7 135 l0 70 7 -65 c4 -36 8 -96 7 -135z m10 -1237 c-1 -128 -2 -26 -2
227 0 253 1 358 2 233 2 -125 2 -332 0 -460z m-16 -1048 l-8 -75 -2 90 c0 50
2 122 7 160 l7 70 3 -85 c1 -47 -2 -119 -7 -160z m-14 -582 c-2 -35 -3 -9 -3
57 0 66 1 94 3 63 2 -32 2 -86 0 -120z m-92 -906 c-10 -83 -18 -53 -9 35 5 45
10 65 12 48 2 -16 1 -54 -3 -83z"/>
<path d="M7290 7304 c0 -17 -3 -34 -7 -38 -5 -4 -9 -12 -9 -17 -1 -5 -3 -10
-4 -11 -1 -2 -8 -52 -16 -113 -7 -60 -18 -132 -23 -159 -19 -88 -28 -79 -46
50 -12 85 -30 162 -53 224 -3 8 -6 17 -7 20 -11 43 -18 51 -43 48 -35 -4 -52
-39 -53 -113 -1 -98 -11 -107 -42 -43 -15 30 -27 59 -27 65 0 5 -10 18 -21 29
l-22 19 6 -54 c4 -30 11 -59 17 -65 5 -5 10 -21 10 -35 0 -15 9 -46 20 -70 11
-24 20 -56 20 -72 0 -15 9 -53 21 -84 21 -56 22 -85 2 -42 -102 214 -172 318
-200 296 -7 -6 -13 -21 -13 -32 0 -19 -1 -19 -18 -4 -35 32 -52 22 -52 -32 0
-49 19 -116 64 -230 14 -36 26 -72 26 -80 0 -21 -55 34 -70 70 -7 16 -16 29
-20 29 -4 0 -28 27 -54 60 -35 45 -54 60 -72 60 l-25 0 20 -26 c26 -33 27 -48
2 -34 -35 18 -59 12 -72 -19 -12 -27 -15 -28 -33 -15 -29 20 -57 17 -63 -6 -3
-11 -13 -20 -22 -20 -10 0 -28 -11 -40 -24 -18 -20 -21 -30 -15 -61 8 -43 48
-107 111 -179 65 -73 59 -82 -34 -40 -68 30 -154 55 -202 58 -38 2 -54 -20
-28 -39 21 -15 22 -25 3 -25 -43 0 -38 -72 6 -90 13 -5 37 -18 53 -29 17 -12
37 -21 45 -21 20 0 139 -53 140 -62 0 -4 -44 -9 -97 -10 -93 -3 -98 -4 -101
-25 -3 -18 2 -23 20 -23 13 0 31 -7 41 -14 15 -12 13 -14 -24 -20 -48 -8 -119
-59 -119 -85 0 -10 16 -25 43 -37 38 -17 65 -19 277 -19 158 1 244 5 263 13
50 21 28 -4 -25 -29 -49 -22 -83 -48 -197 -146 -24 -21 -81 -82 -126 -136 -78
-93 -85 -104 -120 -211 -31 -95 -36 -122 -33 -177 5 -69 31 -172 52 -204 7
-11 19 -38 26 -60 7 -22 24 -59 37 -82 32 -55 169 -184 236 -221 47 -27 270
-103 340 -117 34 -7 34 11 1 -370 -58 -683 -63 -1755 -14 -2870 36 -835 70
-1411 86 -1478 6 -27 8 -28 53 -21 25 4 48 8 52 10 6 3 5 23 -11 204 -13 156
-27 390 -45 765 -8 160 -20 398 -26 530 -8 156 -13 616 -13 1315 0 940 2 1099
17 1265 9 104 17 224 17 265 0 41 7 116 15 165 8 50 15 111 15 137 0 75 3 78
79 78 36 0 93 7 126 16 33 8 88 21 122 29 128 30 339 193 397 310 110 216 58
498 -149 810 -52 79 -95 146 -95 148 0 6 39 1 47 -6 9 -9 365 3 378 13 6 4 27
10 48 14 20 4 37 10 37 14 -1 4 -17 19 -37 35 l-36 27 34 0 c19 0 58 3 87 6
48 6 52 9 52 33 0 21 -8 29 -43 43 -23 9 -77 22 -120 29 -43 6 -75 14 -73 17
3 2 34 14 69 26 88 31 171 72 188 92 13 16 7 17 -97 12 -61 -3 -121 -11 -133
-17 -12 -7 -30 -10 -39 -8 -15 3 -14 5 3 12 67 26 182 88 204 110 14 13 14 17
-2 32 -13 13 -21 15 -39 6 -24 -12 -108 -33 -108 -28 0 2 17 14 38 26 88 54
109 99 47 99 -36 0 -46 -4 -160 -55 l-60 -27 25 27 c14 15 39 33 57 40 39 17
163 133 163 153 0 12 -12 14 -61 9 -34 -3 -66 -10 -72 -16 -6 -6 -16 -11 -21
-11 -6 0 11 22 37 48 76 77 56 109 -33 52 -25 -16 -63 -39 -85 -51 -44 -24
-76 -47 -179 -128 -81 -64 -74 -45 30 69 96 107 184 238 184 276 0 21 -25 35
-38 22 -9 -9 -12 -3 -12 27 0 36 -1 37 -18 22 -10 -10 -24 -17 -30 -17 -7 0
-12 -4 -12 -9 0 -5 -28 -39 -62 -76 -34 -36 -70 -79 -79 -95 -10 -15 -22 -31
-28 -34 -6 -4 -31 -38 -57 -77 -26 -38 -49 -67 -52 -65 -2 3 5 17 15 33 27 39
100 192 109 228 4 17 18 52 30 79 28 57 31 104 8 113 -18 7 -59 -29 -80 -69
-24 -45 -34 -32 -34 42 0 60 -2 70 -17 70 -13 0 -25 -20 -44 -73 -14 -39 -31
-88 -38 -107 -8 -19 -20 -61 -29 -92 -8 -32 -18 -58 -21 -58 -3 0 -4 64 -3
142 2 77 1 170 -3 205 -6 58 -9 63 -30 63 -13 0 -27 -4 -30 -10 -3 -5 -17 2
-30 18 l-24 27 -1 -31z m-717 -542 c17 -30 52 -79 77 -110 56 -71 17 -42 -65
48 -32 36 -63 68 -68 71 -7 5 -37 56 -37 64 0 2 14 -2 30 -8 20 -8 42 -30 63
-65z m490 -2029 c-7 -2 -19 -2 -25 0 -7 3 -2 5 12 5 14 0 19 -2 13 -5z"/>
<path d="M2686 6030 c-4 -39 -7 -105 -6 -148 2 -115 1 -122 -14 -82 -8 19 -19
55 -26 80 -6 25 -18 58 -26 73 -8 16 -14 34 -14 40 -1 22 -37 61 -59 62 -20 2
-21 -3 -21 -84 l0 -86 -20 25 c-11 14 -25 40 -32 58 -9 23 -18 32 -35 32 l-22
0 18 -37 c10 -21 35 -71 55 -110 20 -40 36 -78 36 -84 0 -14 -92 88 -102 113
-8 19 -68 27 -68 8 0 -5 -12 -10 -26 -10 -25 0 -26 -2 -19 -37 3 -21 13 -48
21 -60 8 -12 14 -27 14 -32 0 -6 14 -33 31 -61 17 -28 30 -53 27 -55 -7 -7
-98 76 -98 91 0 8 -5 14 -12 14 -6 0 -22 10 -35 22 l-23 21 0 -26 c0 -18 -5
-27 -16 -27 -17 0 -44 -23 -44 -38 0 -4 -13 -7 -30 -4 -21 3 -30 0 -30 -9 0
-8 -10 -19 -22 -24 -13 -6 -22 -13 -20 -17 1 -5 2 -25 2 -45 0 -32 8 -45 61
-96 33 -32 59 -60 57 -62 -2 -2 -23 1 -48 5 -25 5 -64 9 -87 10 -23 0 -45 5
-48 10 -3 6 -13 10 -21 10 -17 0 -19 -31 -2 -48 9 -9 9 -12 0 -12 -19 0 -31
-42 -17 -56 7 -7 31 -18 55 -24 23 -6 50 -15 59 -20 9 -5 37 -12 64 -15 54 -7
62 -19 15 -22 -72 -4 -118 -16 -134 -34 -17 -18 -16 -19 20 -19 45 0 43 -10
-4 -42 -23 -16 -36 -33 -38 -51 l-3 -27 104 0 c94 0 153 7 227 26 14 3 41 8
60 11 l35 4 -30 -23 c-67 -51 -171 -175 -221 -263 -17 -29 -21 -43 -44 -150
-10 -48 -4 -140 10 -160 4 -5 13 -28 20 -50 7 -22 20 -49 30 -60 10 -11 25
-34 33 -50 18 -35 95 -110 153 -148 57 -38 214 -87 278 -87 l53 0 7 -52 c3
-29 11 -160 16 -291 5 -131 12 -243 16 -248 11 -19 28 -724 28 -1214 0 -510
-16 -1132 -34 -1285 -5 -47 -10 -130 -10 -185 0 -131 -18 -514 -30 -635 -21
-209 -22 -230 -6 -230 8 0 16 12 19 28 l4 27 2 -26 c1 -20 7 -28 28 -32 44 -8
51 0 56 71 3 37 10 132 16 212 17 228 31 481 41 785 5 154 14 332 19 395 6 63
13 331 16 595 7 634 -13 1307 -54 1795 -12 134 -21 253 -21 262 0 10 -7 18
-17 18 -38 0 6 19 82 35 85 19 249 94 304 141 17 14 40 43 50 63 11 20 28 44
39 55 36 32 57 203 37 297 -14 63 -58 164 -90 204 -17 22 -47 63 -65 90 -19
28 -56 73 -82 101 l-48 51 81 6 c45 4 87 11 93 15 6 5 40 12 75 16 100 10 137
44 80 73 -23 12 -21 13 21 13 56 1 90 23 74 48 -6 9 -20 18 -30 20 -10 2 -26
6 -34 9 -8 3 -30 5 -47 4 -41 -3 -43 13 -5 28 16 7 51 32 78 56 l49 44 -41 1
c-22 0 -55 -7 -73 -16 -55 -27 -53 -10 4 34 75 59 70 92 -11 62 -15 -6 -29 -8
-32 -5 -4 3 3 8 15 11 19 5 33 30 33 62 0 17 -45 15 -60 -3 -13 -16 -40 -21
-40 -7 0 4 18 26 40 47 25 24 40 48 40 63 0 22 -3 24 -32 18 -18 -3 -45 -15
-60 -26 -38 -28 -36 -8 2 23 35 30 41 67 10 67 -20 0 -64 -35 -135 -105 -16
-16 -43 -41 -59 -55 l-29 -25 33 60 c18 33 46 78 62 100 16 24 30 60 34 89 7
46 6 48 -14 41 -16 -5 -22 -2 -22 9 0 9 -8 16 -19 16 -13 0 -38 -34 -87 -116
-69 -118 -88 -133 -59 -48 9 26 19 67 22 91 3 24 10 46 14 49 5 3 9 23 9 45 0
32 -3 39 -20 39 -11 0 -20 -6 -20 -12 -1 -7 -10 -24 -21 -37 -17 -21 -22 -22
-30 -10 -5 7 -9 26 -9 42 0 20 -5 27 -19 27 -15 0 -21 -12 -30 -57 -7 -32 -18
-87 -25 -123 l-14 -65 -1 73 c0 40 -5 80 -10 90 -5 9 -13 40 -18 67 -8 47 -10
50 -39 50 -17 0 -38 6 -46 13 -13 11 -16 3 -22 -58z m-445 -450 c74 -77 60
-78 -22 0 -35 33 -58 60 -50 60 8 0 40 -27 72 -60z m999 46 c0 -2 -8 -10 -17
-17 -16 -13 -17 -12 -4 4 13 16 21 21 21 13z m40 -155 c0 -5 -7 -12 -16 -15
-14 -5 -15 -4 -4 9 14 17 20 19 20 6z m-432 -2041 l0 -35 -8 30 c-4 17 -8 57
-7 90 l0 60 7 -55 c5 -30 8 -71 8 -90z m11 -319 c1 -82 -6 -57 -12 44 -4 63
-3 78 3 50 5 -22 9 -64 9 -94z m8 -883 c-1 -95 -3 -20 -3 167 0 187 2 265 3
173 2 -92 2 -245 0 -340z m-12 -736 c-12 -81 -17 -33 -9 75 9 106 9 107 12 38
2 -38 0 -90 -3 -113z"/>
<path d="M4456 5638 c-9 -45 -26 -215 -36 -363 -6 -82 -15 -179 -20 -215 -6
-36 -14 -200 -20 -365 -5 -165 -14 -376 -21 -470 -17 -248 -5 -2048 16 -2310
8 -104 15 -242 15 -305 0 -63 5 -160 10 -215 6 -55 15 -194 20 -310 17 -347
35 -623 67 -1012 2 -35 9 -63 15 -63 11 0 8 87 -13 390 -4 69 -13 210 -19 313
-5 104 -12 193 -15 197 -5 8 -16 224 -35 685 -5 121 -14 281 -20 355 -17 191
-19 2144 -3 2601 7 191 21 431 32 535 11 104 25 250 31 324 6 74 13 161 17
193 4 39 2 57 -5 57 -7 0 -14 -10 -16 -22z"/>
<path d="M985 5568 c-8 -27 -57 -799 -68 -1083 -7 -167 -12 -659 -12 -1110 1
-937 15 -1573 55 -2440 5 -121 15 -335 21 -475 6 -140 13 -299 16 -353 3 -70
8 -97 16 -94 8 2 12 31 11 88 -2 131 -22 567 -34 749 -14 203 -38 905 -51
1495 -6 242 -8 838 -6 1325 6 920 9 1002 67 1744 5 72 10 138 10 148 0 20 -19
25 -25 6z"/>
<path d="M8830 5145 c0 -70 -4 -115 -10 -115 -5 0 -10 8 -10 17 0 21 -36 128
-58 171 -31 61 -69 37 -74 -48 -4 -51 -5 -53 -12 -22 -6 20 -15 32 -26 32 -26
0 -29 -9 -15 -38 8 -15 21 -45 31 -67 9 -22 21 -48 26 -57 6 -12 5 -18 -2 -18
-6 0 -13 8 -17 18 -3 9 -23 38 -44 63 -37 44 -69 59 -69 32 0 -7 -9 -13 -20
-13 -30 0 -26 -53 11 -128 17 -35 28 -66 25 -69 -8 -8 -36 17 -36 31 0 16 -53
66 -69 66 -8 0 -26 -13 -41 -29 -21 -21 -34 -27 -54 -24 -18 4 -26 1 -26 -8 0
-8 -9 -20 -20 -27 -34 -21 -20 -114 20 -127 9 -3 28 -17 41 -32 l24 -26 -60 7
c-33 4 -64 11 -69 16 -6 6 -22 10 -37 10 -25 0 -27 -2 -27 -50 0 -41 4 -53 22
-62 33 -19 89 -38 113 -38 12 0 25 -4 28 -10 4 -6 -6 -10 -23 -10 -58 0 -92
-12 -92 -31 0 -11 7 -19 18 -19 12 0 8 -7 -15 -26 -22 -16 -33 -34 -33 -50 l0
-25 118 4 c64 2 131 8 147 12 28 8 26 4 -27 -48 -185 -183 -185 -463 1 -641
68 -64 159 -112 249 -131 36 -8 68 -17 72 -22 4 -4 20 -141 35 -303 27 -283
28 -323 32 -1000 5 -718 0 -931 -37 -1685 -6 -121 -15 -242 -20 -270 -5 -27
-12 -116 -15 -196 l-7 -147 44 -4 c69 -8 78 2 78 82 0 38 4 100 10 137 11 74
39 512 51 793 16 377 22 1453 10 1787 -10 287 -43 744 -56 781 -3 7 -10 10
-16 7 -6 -5 -8 -25 -5 -54 11 -79 36 -354 36 -390 0 -77 -9 -13 -30 218 -18
194 -20 245 -10 251 7 4 34 11 60 14 60 8 214 86 263 134 84 81 127 186 127
307 0 152 -69 285 -194 377 l-39 28 31 0 c17 0 34 5 37 10 3 6 18 10 32 10 15
0 66 5 115 11 l88 12 0 33 c0 32 2 34 35 34 30 0 35 3 35 24 0 32 -6 35 -82
43 l-63 7 40 17 c22 10 58 34 80 54 l40 36 -60 -6 -60 -7 40 41 39 41 -31 0
c-18 0 -35 -4 -38 -10 -3 -5 -11 -10 -17 -10 -7 0 0 13 15 28 28 29 36 62 15
62 -7 0 -32 -11 -55 -25 -54 -30 -54 -21 -3 29 48 46 56 91 15 84 -27 -6 -33
10 -13 30 9 9 6 12 -16 12 -29 0 -56 -19 -153 -105 -31 -27 -52 -43 -47 -35 5
8 31 48 57 88 59 88 68 131 38 163 -26 28 -46 20 -74 -32 -10 -19 -27 -43 -38
-55 -10 -11 -19 -27 -19 -36 0 -9 -9 -26 -19 -39 -19 -24 -19 -23 -1 31 11 30
19 65 20 77 0 12 5 25 10 28 6 3 10 24 10 46 0 50 -28 54 -50 7 l-15 -33 -9
38 c-7 28 -14 37 -31 37 -20 0 -23 -8 -35 -90 -7 -50 -17 -93 -21 -96 -5 -3
-9 27 -9 66 0 39 -5 91 -11 116 -11 44 -12 44 -55 44 l-44 0 0 -115z m490
-159 c0 -3 -4 -8 -10 -11 -5 -3 -10 -1 -10 4 0 6 5 11 10 11 6 0 10 -2 10 -4z
m-866 -143 c51 -57 41 -55 -14 3 -25 26 -40 45 -34 43 5 -2 27 -23 48 -46z
m916 -93 c0 -5 -7 -10 -16 -10 -8 0 -12 5 -9 10 3 6 10 10 16 10 5 0 9 -4 9
-10z m-433 -1882 c-2 -18 -4 -4 -4 32 0 36 2 50 4 33 2 -18 2 -48 0 -65z m21
-383 c-1 -95 -2 -110 -8 -70 -11 71 -11 284 1 230 4 -22 8 -94 7 -160z m-6
-931 l-10 -49 -1 55 c0 30 3 80 7 110 l7 55 3 -61 c2 -34 -1 -83 -6 -110z
m-122 -1244 l-7 -45 -2 41 c0 22 2 44 6 47 10 11 11 5 3 -43z m-13 -197 c-3
-10 -5 -2 -5 17 0 19 2 27 5 18 2 -10 2 -26 0 -35z"/>
<path d="M6930 4668 c0 -13 -11 -156 -25 -318 -41 -479 -50 -752 -50 -1510 1
-809 14 -1315 55 -2070 5 -102 15 -277 21 -390 15 -299 22 -363 37 -368 10 -3
12 4 8 29 -3 19 -10 147 -16 284 -5 138 -14 309 -20 380 -13 156 -39 789 -50
1190 -11 406 -11 1531 0 1825 7 206 43 704 66 913 5 48 3 57 -10 57 -10 0 -16
-9 -16 -22z"/>
<path d="M22 4568 c-17 -22 -24 -76 -12 -98 25 -48 117 -51 138 -4 15 32 15
56 0 89 -10 22 -17 25 -63 25 -30 0 -57 -5 -63 -12z"/>
<path d="M12678 4524 c-30 -16 -42 -55 -30 -99 7 -27 13 -30 52 -33 67 -5 87
3 94 39 9 46 -1 72 -35 92 -35 20 -44 20 -81 1z"/>
<path d="M247 3832 c-22 -24 -22 -75 1 -94 47 -42 75 -42 119 -1 16 15 17 85
1 101 -19 19 -102 15 -121 -6z"/>
<path d="M5535 3413 c-4 -26 -7 -74 -6 -105 0 -32 -4 -58 -9 -58 -6 0 -10 12
-10 26 0 14 -6 40 -14 57 -8 18 -20 47 -27 65 -8 17 -19 32 -26 32 -31 0 -43
-14 -43 -49 -1 -29 -3 -33 -11 -18 -5 9 -17 17 -25 17 -12 0 -14 -7 -9 -32 4
-18 13 -43 21 -55 26 -41 14 -48 -17 -10 -28 34 -69 50 -69 28 0 -5 -9 -7 -20
-4 -15 4 -20 0 -20 -15 0 -25 38 -121 59 -147 9 -11 -11 6 -44 38 -51 50 -60
55 -63 37 -2 -12 -11 -20 -23 -20 -10 0 -19 -7 -19 -15 0 -10 -10 -15 -28 -15
-37 0 -62 -28 -62 -68 0 -24 11 -41 48 -76 l47 -45 -40 6 c-22 3 -44 10 -49
14 -17 15 -66 11 -66 -6 0 -8 -6 -25 -12 -36 -11 -18 -10 -23 11 -40 13 -10
31 -19 42 -19 10 0 21 -4 24 -10 3 -5 18 -11 33 -11 17 -1 8 -5 -26 -13 l-53
-11 22 -22 23 -22 -25 -9 c-13 -6 -33 -19 -43 -31 -17 -19 -17 -21 -3 -21 10
0 17 -5 17 -11 0 -12 170 -7 210 6 21 7 17 0 -23 -44 -27 -28 -60 -77 -75
-109 -23 -49 -27 -70 -26 -147 0 -75 4 -99 26 -146 53 -116 161 -205 286 -235
l80 -19 21 -130 c43 -264 56 -717 33 -1155 -6 -118 -14 -237 -18 -265 -4 -27
-8 -75 -9 -105 -2 -30 -6 -75 -10 -100 -3 -25 -10 -85 -15 -135 -5 -50 -10
-101 -12 -115 -3 -21 2 -25 37 -31 51 -8 65 -3 65 26 0 13 4 34 9 48 5 13 14
102 20 198 7 96 16 203 22 239 10 66 32 543 32 700 -1 146 -21 493 -32 535 -6
22 -11 66 -11 97 0 74 -19 161 -36 171 -27 15 -13 24 64 40 46 10 92 27 112
42 19 14 40 25 47 25 8 0 36 20 62 45 41 38 51 56 69 118 30 105 35 148 23
213 -16 84 -47 141 -113 207 -32 32 -58 59 -58 60 0 1 10 3 23 4 12 2 61 8
110 15 85 12 88 13 95 42 7 25 14 32 40 34 24 2 32 8 32 23 0 10 -7 19 -15 19
-8 0 -15 3 -15 8 0 4 -20 6 -45 4 -25 -2 -45 0 -45 5 0 5 25 20 55 34 38 17
55 30 55 43 0 16 -6 18 -45 13 -48 -5 -50 -2 -13 17 30 15 37 56 11 56 -11 0
-24 -5 -31 -12 -9 -9 -12 -9 -12 0 0 6 9 17 20 24 29 18 25 26 -16 30 l-36 3
31 35 30 35 -35 3 c-29 3 -33 6 -24 18 15 17 6 44 -14 44 -8 0 -45 -29 -83
-64 -37 -35 -70 -63 -72 -61 -2 2 12 23 31 47 19 24 39 56 46 71 15 34 16 81
2 72 -5 -3 -10 1 -10 9 0 45 -87 -30 -113 -97 -14 -37 -16 -11 -2 28 8 22 14
64 15 94 0 53 0 54 -20 36 -11 -10 -20 -24 -20 -32 0 -20 -18 -16 -25 7 -3 11
-15 20 -25 20 -15 0 -20 -11 -25 -55 -9 -70 -25 -81 -26 -18 -2 82 -11 108
-39 111 -14 2 -30 8 -36 13 -9 7 -14 -4 -19 -38z m-121 -199 c3 -8 2 -12 -4
-9 -6 3 -10 10 -10 16 0 14 7 11 14 -7z m-218 -121 c-7 -7 -26 7 -26 19 0 6 6
6 15 -2 9 -7 13 -15 11 -17z m437 -1456 c3 -22 2 -35 -4 -32 -5 4 -9 22 -9 42
0 45 5 40 13 -10z"/>
<path d="M232 1127 c-25 -26 -30 -95 -10 -115 19 -19 102 -15 121 6 26 28 21
75 -9 106 -33 33 -73 34 -102 3z"/>
<path d="M5803 1004 c-27 -20 -33 -33 -33 -62 0 -31 6 -41 33 -59 36 -25 67
-30 67 -11 0 6 3 8 7 5 14 -15 43 27 43 62 0 42 -5 50 -42 74 -35 22 -37 22
-75 -9z"/>
</g>
</svg>
