<svg xmlns="http://www.w3.org/2000/svg" xmlns:xlink="http://www.w3.org/1999/xlink" version="1.1" x="0px" y="0px" viewBox="0 0 100 125" enable-background="new 0 0 100 100" xml:space="preserve"><path d="M1.271,50L50,78.134L98.729,50L50,21.866L1.271,50z M66.413,34.806c-2.17,1.243-4.297,2.382-6.716,3.101  c-0.188,0.056-0.359,0.097-0.537,0.143c-0.967-0.47-1.934-0.931-2.889-1.381c-1.228-0.579-2.455-1.158-3.672-1.76  c-0.598-0.296-1.189-0.608-1.785-0.917c2.444-1.302,4.848-2.673,7.205-4.033L66.413,34.806z M75.563,40.089  c-2.25,1.287-4.672,2.571-7.215,3.224c-1.281-0.853-2.584-1.69-3.91-2.474c-1.392-0.824-2.828-1.578-4.271-2.296  c2.528-0.789,4.808-2.036,7-3.3L75.563,40.089z M84.707,45.368c-2.373,1.367-4.79,2.739-7.246,4.035  c-0.665-0.419-1.332-0.836-1.986-1.265c-1.305-0.855-2.593-1.74-3.879-2.623c-0.808-0.554-1.627-1.113-2.455-1.669  c2.588-0.767,5.021-2.087,7.172-3.324L84.707,45.368z M92.729,50l-7.269,4.197c-2.335-1.353-4.81-2.797-7.271-4.329  c2.465-1.312,4.889-2.696,7.267-4.067L92.729,50z M14.543,45.801c2.377,1.371,4.8,2.756,7.267,4.067  c-2.461,1.53-4.936,2.978-7.271,4.329L7.271,50L14.543,45.801z M23.686,40.522c2.15,1.236,4.581,2.56,7.167,3.327  c-0.824,0.555-1.642,1.112-2.446,1.664c-1.289,0.884-2.577,1.77-3.883,2.625c-0.653,0.429-1.32,0.846-1.984,1.265  c-2.456-1.296-4.873-2.669-7.246-4.036L23.686,40.522z M41.981,29.96c2.357,1.359,4.76,2.731,7.204,4.033  c-0.595,0.308-1.188,0.621-1.786,0.917c-1.218,0.603-2.446,1.182-3.674,1.761c-0.953,0.45-1.918,0.91-2.883,1.378  c-0.177-0.046-0.349-0.087-0.536-0.143c-2.419-0.719-4.546-1.857-6.717-3.104L41.981,29.96z M64.057,41.484  c1.104,0.653,2.192,1.347,3.27,2.054c-0.887,0.163-1.786,0.245-2.697,0.21c-1.081-0.035-2.029-0.117-2.947-0.197  c-0.82-0.071-1.588-0.135-2.332-0.152c-0.4-0.455-0.81-0.904-1.23-1.341c-1.188-1.227-2.33-2.218-3.631-2.904  c0.502,0.043,1.002,0.076,1.519,0.076c0.918,0,1.907-0.104,3.071-0.385C60.762,39.667,62.441,40.528,64.057,41.484z M40.925,38.844  c1.163,0.281,2.152,0.385,3.069,0.385c0.531,0,1.043-0.035,1.558-0.08c-1.324,0.69-2.479,1.68-3.638,2.876  c-0.434,0.447-0.853,0.908-1.265,1.375c-0.742,0.017-1.509,0.08-2.328,0.151c-0.918,0.08-1.868,0.163-2.95,0.197  c-0.911,0.032-1.809-0.051-2.692-0.212c1.075-0.706,2.162-1.399,3.265-2.051C37.56,40.528,39.241,39.667,40.925,38.844z   M50.024,38.834c3.307,0.033,5.343,1.457,7.555,3.745c0.262,0.271,0.515,0.553,0.769,0.833c-2.164,0.115-4.211,0.856-6.836,3.44  c-0.523,0.514-1.022,1.049-1.511,1.593c-0.489-0.544-0.988-1.079-1.511-1.593c-2.625-2.584-4.673-3.324-6.838-3.438  c0.265-0.291,0.528-0.584,0.801-0.866C44.66,40.271,46.697,38.856,50.024,38.834L50.024,38.834z M35.396,44.498  c1.102-0.036,2.105-0.123,2.991-0.199c0.564-0.049,1.091-0.093,1.597-0.123c-0.847,0.999-1.66,2.016-2.454,3.018  c-0.471,0.594-0.941,1.188-1.419,1.777c-1.63,2.008-3.054,3.555-4.481,4.875c-0.935-0.453-1.868-0.896-2.791-1.333  c-1.229-0.579-2.458-1.159-3.676-1.762c-0.62-0.307-1.235-0.631-1.851-0.951c0.542-0.344,1.088-0.684,1.623-1.034  c1.311-0.86,2.604-1.747,3.896-2.633c0.98-0.672,1.977-1.352,2.984-2.025C32.985,44.383,34.182,44.535,35.396,44.498z   M36.693,49.443c0.48-0.591,0.952-1.188,1.425-1.784c0.928-1.171,1.882-2.366,2.885-3.519c2.319-0.007,4.247,0.575,6.96,3.246  c0.532,0.523,1.041,1.072,1.539,1.629c-1.017,1.17-1.981,2.375-2.918,3.563c-1.281,1.623-2.606,3.3-4.051,4.827  c-0.559,0.59-1.142,1.142-1.733,1.676c-1.246-0.827-2.512-1.64-3.799-2.401c-1.516-0.896-3.084-1.709-4.657-2.482  C33.734,52.889,35.128,51.371,36.693,49.443z M43.078,57.919c1.468-1.551,2.804-3.242,4.095-4.877  c0.91-1.151,1.845-2.322,2.827-3.457c0.982,1.135,1.917,2.306,2.828,3.458c1.292,1.635,2.627,3.327,4.095,4.877  c0.529,0.559,1.078,1.083,1.636,1.591c-0.91,0.611-1.813,1.228-2.699,1.833c-1.293,0.887-2.586,1.774-3.898,2.635  c-0.646,0.424-1.304,0.836-1.96,1.25c-0.656-0.414-1.315-0.826-1.961-1.25c-1.312-0.859-2.605-1.748-3.898-2.635  c-0.887-0.606-1.788-1.222-2.698-1.833C42,59.003,42.549,58.479,43.078,57.919z M57.468,57.405  c-1.444-1.526-2.771-3.204-4.051-4.827c-0.937-1.188-1.901-2.394-2.918-3.564c0.498-0.557,1.007-1.105,1.539-1.628  c2.714-2.67,4.642-3.254,6.961-3.247c1,1.15,1.953,2.343,2.879,3.512c0.479,0.606,0.961,1.212,1.449,1.813  c1.557,1.918,2.944,3.431,4.33,4.729c-1.572,0.773-3.14,1.588-4.656,2.483c-1.288,0.763-2.554,1.574-3.799,2.401  C58.609,58.546,58.025,57.995,57.468,57.405z M63.908,48.992c-0.486-0.599-0.965-1.203-1.444-1.807  c-0.792-0.999-1.604-2.014-2.448-3.01c0.506,0.03,1.034,0.074,1.6,0.124c0.885,0.077,1.888,0.164,2.988,0.199  c1.211,0.035,2.408-0.119,3.576-0.395c1.01,0.674,2.01,1.356,2.991,2.03c1.292,0.886,2.583,1.772,3.894,2.632  c0.535,0.351,1.082,0.691,1.623,1.035c-0.615,0.32-1.23,0.644-1.852,0.951c-1.221,0.604-2.452,1.185-3.684,1.767  c-0.918,0.433-1.844,0.875-2.772,1.323C66.945,52.518,65.52,50.975,63.908,48.992z M53.525,38.308  c-0.889-0.092-1.896-0.197-3.089-0.222c-0.003,0-0.005,0-0.008,0c-0.031,0-0.058,0.01-0.087,0.017  c-0.105-0.003-0.201-0.019-0.31-0.02H50.03c-0.001,0-0.001,0-0.002,0c0,0-0.001,0-0.002,0c-0.111,0-0.21,0.016-0.319,0.02  c-0.043-0.013-0.088-0.021-0.142-0.017c-1.193,0.024-2.2,0.129-3.089,0.221c-1.517,0.158-2.794,0.288-4.459,0.003  c0.679-0.325,1.356-0.645,2.028-0.961c1.232-0.582,2.465-1.163,3.688-1.768c0.76-0.376,1.514-0.77,2.268-1.165  c0.753,0.395,1.507,0.788,2.267,1.164c1.223,0.604,2.455,1.186,3.687,1.766c0.673,0.317,1.353,0.637,2.032,0.963  C56.318,38.595,55.042,38.465,53.525,38.308z M32.833,35.242c2.194,1.264,4.474,2.512,7.001,3.3  c-1.443,0.718-2.88,1.473-4.272,2.296c-1.324,0.784-2.625,1.62-3.905,2.472c-2.548-0.652-4.968-1.934-7.219-3.221L32.833,35.242z   M22.58,50.267c0.748,0.392,1.497,0.782,2.251,1.156c1.223,0.604,2.456,1.187,3.689,1.769c0.831,0.393,1.67,0.791,2.51,1.195  c-2.139,1.883-4.357,3.33-7.349,5.088l-8.392-4.845C17.64,53.268,20.119,51.809,22.58,50.267z M31.752,54.74  c1.646,0.806,3.288,1.65,4.866,2.584c1.217,0.72,2.418,1.486,3.601,2.27c-2.394,2.064-4.973,3.729-7.394,5.161l-8.4-4.85  C27.337,58.18,29.571,56.693,31.752,54.74z M40.863,60.025c0.962,0.646,1.916,1.295,2.853,1.938  c1.297,0.891,2.595,1.779,3.911,2.645c0.552,0.361,1.115,0.713,1.675,1.066c-2.483,1.546-4.975,3.004-7.325,4.364l-8.409-4.854  C35.968,63.75,38.502,62.086,40.863,60.025z M50,66.118c2.46,1.541,4.932,2.996,7.273,4.353L50,74.67l-7.273-4.199  C45.069,69.113,47.541,67.658,50,66.118z M50.697,65.674c0.56-0.355,1.123-0.705,1.674-1.066c1.316-0.862,2.613-1.754,3.911-2.644  c0.938-0.643,1.892-1.293,2.854-1.938c2.362,2.063,4.896,3.726,7.295,5.158l-8.41,4.854C55.674,68.679,53.182,67.221,50.697,65.674z   M59.779,59.594c1.185-0.783,2.385-1.549,3.602-2.27c1.579-0.934,3.221-1.778,4.866-2.583c2.181,1.952,4.414,3.438,7.327,5.164  l-8.399,4.849C64.754,63.322,62.175,61.659,59.779,59.594z M68.98,54.382c0.834-0.401,1.668-0.799,2.492-1.188  c1.235-0.581,2.471-1.166,3.696-1.771c0.754-0.374,1.503-0.764,2.251-1.156c2.461,1.542,4.939,3,7.291,4.362l-8.393,4.846  C73.378,57.744,71.143,56.28,68.98,54.382z M50,33.575c-2.463-1.3-4.888-2.677-7.269-4.048L50,25.33l7.27,4.197  C54.889,30.898,52.464,32.275,50,33.575z"/></svg>