<?xml version="1.0" standalone="no"?>
<!DOCTYPE svg PUBLIC "-//W3C//DTD SVG 20010904//EN"
 "http://www.w3.org/TR/2001/REC-SVG-20010904/DTD/svg10.dtd">
<svg version="1.0" xmlns="http://www.w3.org/2000/svg"
 width="892.000000pt" height="1280.000000pt" viewBox="0 0 892.000000 1280.000000"
 preserveAspectRatio="xMidYMid meet">
<metadata>
Created by potrace 1.15, written by Peter Selinger 2001-2017
</metadata>
<g transform="translate(0.000000,1280.000000) scale(0.100000,-0.100000)"
fill="param(fill) #FFF" stroke="none">
<path d="M5165 12787 c-231 -78 -486 -351 -725 -779 -233 -417 -374 -862 -396
-1259 -10 -165 6 -185 107 -134 63 32 311 186 445 275 430 289 817 711 984
1075 192 417 126 717 -177 810 -70 22 -190 28 -238 12z"/>
<path d="M3020 12461 c-197 -60 -269 -284 -257 -803 5 -256 22 -383 78 -583
54 -198 169 -403 271 -487 56 -46 212 -128 243 -128 36 0 52 31 100 207 53
191 122 396 204 601 69 172 134 356 156 443 42 162 39 303 -10 398 -36 71
-128 150 -244 210 -233 120 -437 173 -541 142z"/>
<path d="M6875 11794 c-209 -20 -386 -58 -582 -125 -138 -47 -399 -173 -528
-254 -360 -227 -622 -524 -690 -784 -23 -89 -26 -88 222 -62 1080 114 1404
180 1636 334 112 75 262 231 308 322 60 116 74 168 74 285 0 95 -3 110 -28
162 -30 61 -60 88 -117 106 -38 12 -229 22 -295 16z"/>
<path d="M1490 11329 c-186 -21 -317 -63 -399 -128 -46 -37 -95 -126 -112
-206 -7 -33 -13 -118 -13 -190 0 -119 2 -135 26 -186 55 -120 170 -164 568
-219 370 -52 481 -71 619 -106 152 -38 246 -79 376 -165 50 -32 98 -59 107
-59 40 0 29 78 -47 343 -167 581 -369 842 -707 911 -84 17 -287 20 -418 5z"/>
<path d="M4160 10323 c-104 -8 -293 -44 -405 -77 -483 -140 -901 -448 -1054
-777 -92 -198 -77 -378 43 -516 56 -64 175 -139 243 -154 80 -16 353 -13 498
6 154 20 252 46 395 102 496 195 824 486 915 813 23 84 24 223 1 310 -9 36
-41 115 -70 176 l-53 111 -168 6 c-167 7 -259 7 -345 0z"/>
<path d="M6715 10299 c-222 -27 -438 -93 -768 -233 -259 -111 -466 -192 -627
-248 -63 -22 -134 -51 -157 -64 -66 -38 -54 -64 27 -64 83 0 455 -127 631
-215 36 -19 158 -90 272 -158 284 -172 389 -205 621 -194 193 9 369 64 517
163 232 154 332 362 285 594 -43 210 -176 343 -401 400 -95 24 -283 33 -400
19z"/>
<path d="M730 10103 c-25 -2 -83 -10 -130 -19 -432 -77 -655 -343 -587 -702
17 -89 55 -183 89 -219 79 -84 504 -37 1031 116 296 86 669 173 977 227 113
20 206 37 207 38 4 4 -192 145 -275 199 -128 81 -387 204 -534 251 -272 89
-547 127 -778 109z"/>
<path d="M4678 9019 c-31 -4 -73 -15 -93 -24 -35 -14 -37 -17 -31 -48 26 -132
544 -795 834 -1068 142 -134 244 -174 432 -172 227 3 428 100 496 239 25 52
27 60 21 162 -15 302 -215 648 -445 770 -118 63 -341 110 -647 137 -181 16
-473 18 -567 4z"/>
<path d="M1845 8933 c-178 -13 -587 -86 -805 -144 -445 -118 -582 -199 -736
-434 -102 -157 -152 -308 -161 -485 -8 -171 22 -273 107 -358 91 -90 241 -108
371 -43 37 18 107 63 155 99 87 64 423 394 814 798 219 225 331 321 539 458
l154 101 -49 7 c-50 6 -300 7 -389 1z"/>
<path d="M3853 8603 c-161 -155 -574 -774 -745 -1118 -211 -421 -217 -638 -22
-844 128 -137 246 -175 414 -135 147 34 291 127 515 332 l142 130 6 138 c23
477 -9 732 -165 1327 -34 130 -65 237 -69 237 -3 0 -38 -30 -76 -67z"/>
<path d="M2831 8464 c-134 -16 -234 -43 -351 -93 -327 -141 -691 -469 -881
-793 -106 -180 -161 -380 -139 -506 15 -86 38 -133 114 -228 84 -104 285 -298
364 -351 137 -92 242 -80 360 38 161 161 282 465 386 969 85 411 166 682 261
870 l55 110 -27 -1 c-16 -1 -79 -7 -142 -15z"/>
<path d="M4526 7948 c-4 -101 -11 -280 -16 -398 -28 -616 -74 -767 -279 -920
-33 -25 -61 -48 -61 -51 0 -4 64 -9 143 -12 160 -6 231 -22 362 -85 577 -278
951 -1227 1060 -2690 20 -276 37 -811 33 -1068 l-3 -212 -301 337 c-650 724
-1030 1096 -1429 1396 -563 424 -1016 561 -1514 459 -42 -9 -139 -37 -216 -64
-635 -220 -782 -265 -1017 -315 -127 -27 -168 -42 -168 -61 0 -18 32 -23 246
-34 283 -14 486 -51 753 -139 426 -141 870 -405 1331 -791 497 -416 1265 -926
1840 -1223 96 -50 208 -113 248 -139 308 -206 476 -483 548 -898 11 -68 18
-200 24 -460 5 -236 12 -380 20 -408 33 -113 174 -171 418 -172 l102 0 0 168
c0 312 -17 428 -135 912 -150 617 -220 958 -267 1300 -19 140 -22 210 -23 460
0 267 2 307 23 425 65 359 206 676 469 1052 203 291 459 595 967 1152 458 501
624 690 780 889 235 300 359 541 431 832 9 36 18 73 21 83 5 14 -1 17 -38 17
-83 0 -273 -29 -363 -55 -278 -81 -952 -413 -1335 -657 -516 -330 -855 -699
-1005 -1096 -48 -129 -74 -242 -106 -457 -34 -240 -60 -352 -98 -439 l-28 -61
-6 195 c-10 310 -50 610 -148 1090 -132 649 -226 1222 -254 1543 l-7 77 -131
-2 c-125 -2 -135 -1 -182 24 -60 32 -151 124 -270 273 -131 165 -228 268 -320
340 -46 36 -85 65 -88 65 -2 0 -7 -82 -11 -182z"/>
</g>
</svg>
